# Blender 3.4.1
# www.blender.org
mtllib key.mtl
o simpleKey
v -0.458972 0.598110 0.001949
v -0.458972 0.698110 0.001949
v -0.458972 0.598110 -0.098051
v -0.458972 0.698110 -0.098051
v 0.731027 0.598110 0.001949
v 0.731027 0.698110 0.001949
v 0.731027 0.598110 -0.098051
v 0.731027 0.698110 -0.098051
v 0.381028 0.598110 -0.098051
v 0.381028 0.698110 -0.098051
v 0.381028 0.598110 0.001949
v 0.381028 0.698110 0.001949
v 0.101027 0.598110 -0.098051
v 0.101027 0.698110 0.001949
v 0.101027 0.698110 -0.098051
v 0.101027 0.598110 0.001949
v -0.193973 0.598110 -0.098051
v -0.193973 0.698110 0.001949
v -0.193973 0.698110 -0.098051
v -0.193973 0.598110 0.001949
v 0.003528 0.698110 -0.098051
v 0.003528 0.598110 0.001949
v 0.003528 0.598110 -0.098051
v 0.003528 0.698110 0.001949
v -0.301473 0.598110 -0.098051
v -0.301473 0.698110 0.001949
v -0.301473 0.698110 -0.098051
v -0.301473 0.598110 0.001949
v 0.003528 0.368110 0.001949
v 0.101027 0.368110 0.001949
v 0.101027 0.368110 -0.098051
v -0.301473 0.398110 0.001949
v -0.193973 0.398110 0.001949
v -0.193973 0.398110 -0.098051
v 0.003528 0.368110 -0.098051
v -0.301473 0.398110 -0.098051
v 0.381028 0.538831 -0.098051
v 0.731027 0.538831 -0.098051
v 0.731027 0.538831 0.001949
v 0.381028 0.538831 0.001949
v 0.731027 0.767388 -0.098051
v 0.381028 0.767388 -0.098051
v 0.381028 0.767388 0.001949
v 0.731027 0.767388 0.001949
v 0.621027 0.698110 -0.098051
v 0.621027 0.598110 0.001949
v 0.621027 0.598110 -0.098051
v 0.621027 0.698110 0.001949
v 0.621027 0.456692 -0.098051
v 0.621027 0.456692 0.001949
v 0.621027 0.849527 -0.098051
v 0.621027 0.849527 0.001949
v 0.496027 0.598110 -0.098051
v 0.496027 0.698110 0.001949
v 0.496027 0.456692 -0.098051
v 0.496027 0.849527 0.001949
v 0.496027 0.698110 -0.098051
v 0.496027 0.598110 0.001949
v 0.496027 0.456692 0.001949
v 0.496027 0.849527 -0.098051
vn -1.0000 -0.0000 -0.0000
vn -0.0000 -0.0000 -1.0000
vn 1.0000 -0.0000 -0.0000
vn -0.0000 -0.0000 1.0000
vn -0.0000 1.0000 -0.0000
vn -0.0000 -1.0000 -0.0000
vn 0.5983 -0.8013 -0.0000
vn -0.5812 0.8137 -0.0000
vn 0.5983 0.8013 -0.0000
vn -0.5812 -0.8137 -0.0000
vt 0.375000 0.000000
vt 0.375000 1.000000
vt 0.125000 0.750000
vt 0.625000 0.000000
vt 0.625000 1.000000
vt 0.875000 0.750000
vt 0.375000 0.250000
vt 0.125000 0.500000
vt 0.875000 0.500000
vt 0.625000 0.250000
vt 0.375000 0.750000
vt 0.625000 0.750000
vt 0.375000 0.500000
vt 0.625000 0.500000
vt 0.250000 0.500000
vt 0.375000 0.375000
vt 0.625000 0.375000
vt 0.750000 0.500000
vt 0.375000 0.875000
vt 0.250000 0.750000
vt 0.625000 0.875000
vt 0.750000 0.750000
vt 0.375000 0.312500
vt 0.187500 0.500000
vt 0.625000 0.937500
vt 0.812500 0.750000
vt 0.625000 0.312500
vt 0.812500 0.500000
vt 0.187500 0.750000
vt 0.375000 0.937500
vt 0.156250 0.500000
vt 0.375000 0.281250
vt 0.843750 0.750000
vt 0.625000 0.968750
vt 0.625000 0.281250
vt 0.843750 0.500000
vt 0.156250 0.750000
vt 0.375000 0.968750
vt 0.828125 0.500000
vt 0.625000 0.296875
vt 0.375000 0.953125
vt 0.171875 0.750000
vt 0.375000 0.296875
vt 0.171875 0.500000
vt 0.625000 0.953125
vt 0.828125 0.750000
vt 0.140625 0.500000
vt 0.375000 0.265625
vt 0.859375 0.750000
vt 0.625000 0.984375
vt 0.625000 0.265625
vt 0.859375 0.500000
vt 0.140625 0.750000
vt 0.375000 0.984375
vt 0.375000 0.953125
vt 0.171875 0.750000
vt 0.187500 0.750000
vt 0.375000 0.937500
vt 0.375000 0.312500
vt 0.187500 0.500000
vt 0.140625 0.750000
vt 0.375000 0.984375
vt 0.156250 0.750000
vt 0.375000 0.968750
vt 0.156250 0.500000
vt 0.375000 0.281250
vt 0.375000 0.296875
vt 0.171875 0.500000
vt 0.140625 0.500000
vt 0.375000 0.265625
vt 0.250000 0.500000
vt 0.375000 0.500000
vt 0.375000 0.750000
vt 0.250000 0.750000
vt 0.625000 0.500000
vt 0.750000 0.500000
vt 0.750000 0.750000
vt 0.625000 0.750000
vt 0.687500 0.500000
vt 0.625000 0.437500
vt 0.312500 0.750000
vt 0.375000 0.812500
vt 0.375000 0.437500
vt 0.312500 0.500000
vt 0.625000 0.812500
vt 0.687500 0.750000
vt 0.312500 0.500000
vt 0.312500 0.750000
vt 0.687500 0.500000
vt 0.687500 0.750000
vt 0.281250 0.500000
vt 0.375000 0.406250
vt 0.718750 0.750000
vt 0.625000 0.843750
vt 0.281250 0.500000
vt 0.718750 0.750000
vt 0.718750 0.500000
vt 0.625000 0.406250
vt 0.281250 0.750000
vt 0.375000 0.843750
vt 0.281250 0.750000
vt 0.718750 0.500000
s 0
usemtl key_Material
f 1/1/1 2/4/1 4/10/1 3/7/1
f 47/83/2 45/80/2 8/14/2 7/13/2
f 7/13/3 8/14/3 6/12/3 5/11/3
f 28/54/4 26/50/4 2/5/4 1/2/4
f 57/97/2 60/102/2 51/89/2 45/79/2
f 27/52/5 4/9/5 2/6/5 26/49/5
f 6/12/4 44/78/4 52/90/4 48/86/4
f 13/24/6 9/15/6 11/20/6 16/29/6
f 58/100/4 54/94/4 12/21/4 11/19/4
f 13/23/2 15/27/2 10/17/2 9/16/2
f 23/43/2 21/40/2 15/27/2 13/23/2
f 23/43/2 13/23/2 31/59/2 35/67/2
f 10/18/5 15/28/5 14/26/5 12/22/5
f 11/19/4 12/21/4 14/25/4 16/30/4
f 28/53/1 25/47/1 36/69/1 32/61/1
f 25/48/2 27/51/2 19/35/2 17/32/2
f 21/39/5 19/36/5 18/33/5 24/46/5
f 22/41/4 24/45/4 18/34/4 20/38/4
f 16/30/4 14/25/4 24/45/4 22/41/4
f 15/28/5 21/39/5 24/46/5 14/26/5
f 17/31/6 23/44/6 22/42/6 20/37/6
f 17/32/2 19/35/2 21/40/2 23/43/2
f 3/7/2 4/10/2 27/51/2 25/48/2
f 3/8/6 25/47/6 28/53/6 1/3/6
f 19/36/5 27/52/5 26/49/5 18/33/5
f 20/38/4 18/34/4 26/50/4 28/54/4
f 35/68/6 31/60/6 30/57/6 29/56/6
f 36/69/6 34/65/6 33/63/6 32/61/6
f 13/24/3 16/29/3 30/57/3 31/60/3
f 16/30/4 22/41/4 29/55/4 30/58/4
f 17/31/3 20/37/3 33/63/3 34/65/3
f 25/48/2 17/32/2 34/66/2 36/70/2
f 22/42/1 23/44/1 35/68/1 29/56/1
f 20/38/4 28/54/4 32/62/4 33/64/4
f 49/87/7 38/72/7 39/73/7 50/88/7
f 53/91/2 55/95/2 37/71/2 9/15/2
f 5/11/3 39/73/3 38/72/3 7/13/3
f 46/81/4 50/88/4 39/73/4 5/11/4
f 9/15/1 37/71/1 40/74/1 11/20/1
f 60/102/8 42/76/8 43/77/8 56/96/8
f 45/79/2 51/89/2 41/75/2 8/14/2
f 12/22/1 43/77/1 42/76/1 10/18/1
f 54/93/4 56/96/4 43/77/4 12/22/4
f 8/14/3 41/75/3 44/78/3 6/12/3
f 41/75/9 51/89/9 52/90/9 44/78/9
f 58/99/4 59/101/4 50/88/4 46/81/4
f 7/13/2 38/72/2 49/87/2 47/84/2
f 55/95/6 49/87/6 50/88/6 59/101/6
f 5/11/4 6/12/4 48/85/4 46/82/4
f 53/92/3 57/98/3 54/94/3 58/100/3
f 9/16/2 10/17/2 57/98/2 53/92/2
f 37/71/10 55/95/10 59/101/10 40/74/10
f 11/20/4 40/74/4 59/101/4 58/99/4
f 48/86/4 52/90/4 56/96/4 54/93/4
f 51/89/5 60/102/5 56/96/5 52/90/5
f 47/84/2 49/87/2 55/95/2 53/91/2
f 46/82/1 48/85/1 45/80/1 47/83/1
f 10/18/2 42/76/2 60/102/2 57/97/2
f 58/100/5 46/82/5 47/84/5 53/92/5
f 57/98/6 45/80/6 48/86/6 54/94/6
